<svg width="134" height="64" viewBox="0 0 134 64" fill="none" xmlns="http://www.w3.org/2000/svg">
<path d="M10.4511 20.9767C12.271 17.5447 15.9814 15.1273 20.8756 15.1273C25.7699 15.1273 29.4361 17.1742 30.726 21.012C32.5812 17.4829 36.6538 15.1273 41.3802 15.1273C47.5643 15.1273 51.9285 18.4005 51.9285 25.2027V43.1743C51.9285 45.4506 52.4939 46.0152 55.9304 46.5446V47.7091H41.6452V46.5446C45.02 46.0505 45.4175 45.5211 45.4175 43.3684V26.5349C45.4175 20.9855 42.8644 18.2417 38.2705 18.2417C34.8958 18.2417 32.4133 19.6357 30.991 21.8766C31.1714 22.8246 31.2602 23.7878 31.256 24.7528V43.3684C31.256 45.5211 31.6536 46.077 35.0283 46.5446V47.7091H20.9728V46.5446C24.3475 46.077 24.7451 45.5211 24.7451 43.3684V26.5349C24.7451 20.9855 22.2626 18.2417 17.6776 18.2417C16.2427 18.1688 14.8154 18.4926 13.5529 19.1775C12.2904 19.8624 11.2415 20.8818 10.5217 22.1236V43.3684C10.5217 45.5211 10.9193 46.077 14.294 46.5446V47.7091H0V46.5446C3.44541 46.0152 4.00197 45.4506 4.00197 43.1743V20.8444C4.00197 19.0798 3.77228 18.7269 1.9524 18.1358L0 17.5447V16.5478L10.4511 15.3567V20.9767Z" fill="black"/>
<path d="M101.699 33.9186C99.8998 24.1493 105.753 16.0261 114.765 14.2816C123.611 12.5908 131.842 17.7259 133.676 27.701C135.475 37.4703 129.587 45.6561 120.61 47.3827C111.633 49.1093 103.533 43.8936 101.699 33.9186ZM126.735 29.3739C125.059 20.2845 120.25 14.8721 114.827 15.9546C109.237 17.0192 106.982 23.4515 108.605 32.2725C110.272 41.3529 115.09 46.8101 120.548 45.7634C126.007 44.7167 128.359 38.2307 126.735 29.3739Z" fill="black"/>
<path d="M55.0892 33.9186C53.2702 24.1493 59.2909 16.0261 68.622 14.2816C77.7984 12.5908 86.3292 17.7259 88.2208 27.701C90.0852 37.4703 83.9918 45.6561 74.6881 47.3827C65.3843 49.1093 56.9899 43.8936 55.0892 33.9186ZM81.027 29.3739C79.299 20.2845 74.3152 14.8721 68.6947 15.9546C62.9014 17.0192 60.5641 23.4515 62.2466 32.2725C63.9746 41.3529 68.9675 46.8101 74.6244 45.7634C80.2812 44.7167 82.7186 38.2307 81.027 29.3739Z" fill="black"/>
<path d="M97.8782 42.2081C97.8782 52.2811 95.2976 55.8668 87.5985 61.4951L85.7662 62.8364L85.0609 61.8896C90.2222 57.3571 91.5298 52.5967 91.5298 42.848V20.5803C91.5298 18.8269 91.3061 18.4762 89.534 17.8889L87.6329 17.3015V16.3108L97.8782 15.1273V42.2081Z" fill="black"/>
<path d="M89.7255 5.41121C89.6905 4.59921 89.8997 3.79533 90.326 3.10299C90.7523 2.41066 91.3763 1.86154 92.1178 1.52629C92.8592 1.19104 93.6842 1.085 94.4865 1.22181C95.2888 1.35861 96.0317 1.73201 96.6197 2.29395C97.2078 2.8559 97.6139 3.58068 97.786 4.37506C97.9581 5.16943 97.8883 5.99706 97.5854 6.75146C97.2826 7.50586 96.7606 8.15251 96.0867 8.60822C95.4127 9.06394 94.6177 9.30786 93.8038 9.30861C92.7471 9.32599 91.7261 8.92648 90.9626 8.1968C90.199 7.46712 89.7545 6.46617 89.7255 5.41121V5.41121Z" fill="white"/>
</svg>
